<?xml version="1.0" standalone="no"?>
<!DOCTYPE svg PUBLIC "-//W3C//DTD SVG 20010904//EN"
 "http://www.w3.org/TR/2001/REC-SVG-20010904/DTD/svg10.dtd">
<svg version="1.0" xmlns="http://www.w3.org/2000/svg"
 width="2667.000000pt" height="1611.000000pt" viewBox="0 0 2667.000000 1611.000000"
 preserveAspectRatio="xMidYMid meet">

<g transform="translate(0.000000,1611.000000) scale(0.100000,-0.100000)"
fill="#000000" stroke="none">
<path d="M12100 10742 c-195 -339 -354 -622 -354 -629 2 -14 691 -1212 709
-1231 9 -10 88 119 365 600 195 337 355 622 355 633 0 21 -702 1245 -713 1245
-4 -1 -167 -279 -362 -618z"/>
<path d="M13064 9398 c-191 -332 -354 -613 -362 -625 l-14 -23 724 0 724 0 91
158 c50 86 212 367 361 625 l270 467 -723 0 -723 0 -348 -602z"/>
<path d="M16250 7085 l0 -1026 78 3 77 3 9 108 c5 68 13 107 20 107 6 0 22
-16 36 -35 62 -87 204 -178 320 -206 80 -19 232 -16 308 6 180 51 316 209 373
430 31 122 32 312 0 430 -65 245 -221 411 -429 454 -130 27 -297 6 -403 -51
-66 -34 -155 -122 -170 -168 -6 -16 -15 -30 -20 -30 -5 0 -9 209 -9 500 l0
500 -95 0 -95 0 0 -1025z m790 93 c161 -75 253 -254 253 -493 -1 -346 -175
-538 -451 -495 -138 22 -298 124 -372 239 l-31 50 3 203 3 204 32 65 c59 120
142 195 262 236 92 33 221 29 301 -9z"/>
<path d="M12860 6975 l0 -915 105 0 105 0 0 420 0 420 495 0 495 0 0 -420 0
-420 100 0 100 0 0 915 0 915 -100 0 -100 0 -2 -397 -3 -398 -492 -3 -493 -2
-2 397 -3 398 -102 3 -103 3 0 -916z"/>
<path d="M9963 7853 l-103 -4 0 -914 0 -915 100 0 100 0 0 389 c0 215 3 392 8
394 4 2 55 2 114 -1 l107 -4 341 -389 341 -389 126 0 c118 0 125 1 112 17 -8
10 -164 190 -346 400 -183 210 -333 384 -333 386 0 2 19 10 43 17 223 67 359
251 359 490 0 259 -140 427 -418 501 -65 18 -112 22 -264 24 -102 1 -231 0
-287 -2z m537 -201 c157 -51 233 -194 201 -377 -15 -86 -48 -151 -101 -199
-83 -75 -181 -98 -395 -94 l-140 3 -3 335 c-1 184 0 341 3 349 4 11 39 12 188
9 150 -4 194 -9 247 -26z"/>
<path d="M11803 7311 c-119 -29 -198 -74 -283 -160 -131 -132 -190 -287 -190
-499 0 -333 188 -591 475 -653 164 -35 392 -1 570 85 l92 45 -15 76 c-8 41
-19 75 -24 75 -6 0 -22 -8 -36 -19 -43 -30 -141 -76 -217 -102 -59 -20 -90
-24 -190 -24 -114 0 -123 2 -188 32 -154 73 -246 230 -263 451 l-7 82 471 0
471 0 10 38 c16 55 13 199 -4 267 -42 160 -158 270 -327 310 -86 20 -254 18
-345 -4z m329 -160 c110 -42 177 -136 178 -248 l0 -63 -381 0 -380 0 6 23 c30
103 112 217 189 262 101 59 271 70 388 26z"/>
<path d="M14733 6838 c4 -543 5 -551 68 -649 72 -113 182 -161 369 -161 99 -1
126 3 194 26 119 41 215 115 252 197 9 22 20 39 25 39 4 0 10 -28 13 -62 4
-35 9 -87 13 -115 l5 -53 74 0 74 0 0 635 0 635 -95 0 -95 0 0 -414 0 -413
-35 -70 c-85 -171 -281 -273 -466 -244 -111 18 -175 86 -199 210 -6 31 -10
236 -10 492 l0 439 -96 0 -95 0 4 -492z"/>
</g>
</svg>
