<svg width="450" height="290" xmlns="http://www.w3.org/2000/svg" version="1.1">

 <g>
  <title>Layer 1</title>
  <g data-tpl_matrix="1,0,0,1,0,20" transform="matrix(1 0 0 1 0 20)" id="surface2">
   <path id="svg_1" fill="rgb(56.470588%,12.156863%,49.019608%)" fill-rule="evenodd" d="m200,92.59766l13.05078,-22.59766l13.05078,22.59766l-13.05078,22.60156l-13.05078,-22.60156"/>
   <path id="svg_2" fill="rgb(29.803922%,29.803922%,29.803922%)" fill-rule="evenodd" d="m243.19922,117.19922l-26.09766,0l13.04688,-22.60156l26.10156,0l-13.05078,22.60156"/>
   <path id="svg_3" fill="rgb(65.490196%,65.490196%,65.490196%)" fill-rule="evenodd" d="m243.19922,68l13.05078,22.59766l-26.10156,0l-13.04688,-22.59766l26.09766,0"/>
  </g>
  <text x="-10" y="0" id="svg_4" fill="rgb(144,31,125)" xml:space="preserve" transform="matrix(1 0 0 1 172.45 181.7)" font-size="50" font-family="Quattrocento Sans">R</text>
  <text x="-5" y="0" id="svg_5" fill="rgb(76,76,76)" xml:space="preserve" transform="matrix(1 0 0 1 226.5 181)" font-size="50" font-family="Quattrocento Sans">H</text>
  <text x="55" y="0" id="svg_9" fill="rgb(76,76,76)" xml:space="preserve" transform="matrix(1 0 0 1 226.5 181)" font-size="50" font-family="Quattrocento Sans">b</text>
  <text x="30" y="0" id="svg_11" fill="rgb(76,76,76)" xml:space="preserve" transform="matrix(1 0 0 1 226.5 181)" font-size="50" font-family="Quattrocento Sans">u</text>
  <text x="25" y="0" id="svg_12" fill="rgb(144,31,125)" xml:space="preserve" transform="matrix(1 0 0 1 172.45 181.7)" font-size="50" font-family="Quattrocento Sans">e</text>
 </g>
</svg>